<svg viewBox="0 0 800 600" xmlns="http://www.w3.org/2000/svg">
  <!-- Background -->
  <rect width="800" height="600" fill="#ffffff" rx="10" ry="10"/>
  
  <!-- Title -->
  <text x="400" y="50" font-family="Arial" font-size="24" fill="#333333" text-anchor="middle" font-weight="bold">CSO Architecture</text>
  
  <!-- Management Cluster Box -->
  <rect x="100" y="100" width="600" height="450" fill="#e1f5fe" stroke="#0288d1" stroke-width="2" rx="5" ry="5"/>
  <text x="400" y="130" font-family="Arial" font-size="18" fill="#01579b" text-anchor="middle" font-weight="bold">Management Cluster</text>
  
  <!-- CSO Controller Box -->
  <rect x="150" y="160" width="500" height="160" fill="#ffcdd2" stroke="#d32f2f" stroke-width="2" rx="5" ry="5"/>
  <text x="400" y="185" font-family="Arial" font-size="16" fill="#b71c1c" text-anchor="middle" font-weight="bold">Cluster Stack Operator (CSO)</text>
  
  <!-- Watch Component -->
  <rect x="170" y="210" width="100" height="80" fill="#fff3e0" stroke="#e65100" stroke-width="1.5" rx="5" ry="5"/>
  <text x="220" y="240" font-family="Arial" font-size="14" fill="#e65100" text-anchor="middle" font-weight="bold">Watch</text>
  <text x="220" y="260" font-family="Arial" font-size="12" fill="#e65100" text-anchor="middle">Monitors CRDs</text>
  
  <!-- Reconcile Component - WIDENED with two-line text -->
  <rect x="280" y="210" width="120" height="80" fill="#f3e5f5" stroke="#6a1b9a" stroke-width="1.5" rx="5" ry="5"/>
  <text x="340" y="240" font-family="Arial" font-size="14" fill="#6a1b9a" text-anchor="middle" font-weight="bold">Reconcile</text>
  <text x="340" y="260" font-family="Arial" font-size="12" fill="#6a1b9a" text-anchor="middle">Processes</text>
  <text x="340" y="275" font-family="Arial" font-size="12" fill="#6a1b9a" text-anchor="middle">Resources</text>
  
  <!-- Apply Component - REPOSITIONED -->
  <rect x="410" y="210" width="100" height="80" fill="#e8f5e9" stroke="#2e7d32" stroke-width="1.5" rx="5" ry="5"/>
  <text x="460" y="240" font-family="Arial" font-size="14" fill="#2e7d32" text-anchor="middle" font-weight="bold">Apply</text>
  <text x="460" y="260" font-family="Arial" font-size="12" fill="#2e7d32" text-anchor="middle">Deploys Addons</text>
  
  <!-- Monitor Component - REPOSITIONED -->
  <rect x="520" y="210" width="100" height="80" fill="#e3f2fd" stroke="#0d47a1" stroke-width="1.5" rx="5" ry="5"/>
  <text x="570" y="240" font-family="Arial" font-size="14" fill="#0d47a1" text-anchor="middle" font-weight="bold">Monitor</text>
  <text x="570" y="260" font-family="Arial" font-size="12" fill="#0d47a1" text-anchor="middle">Tracks Versions</text>
  
  <!-- ClusterStack CRD -->
  <rect x="150" y="350" width="200" height="100" fill="#fff9c4" stroke="#fbc02d" stroke-width="2" rx="5" ry="5"/>
  <text x="250" y="380" font-family="Arial" font-size="16" fill="#f57f17" text-anchor="middle" font-weight="bold">ClusterStack CRD</text>
  <text x="250" y="405" font-family="Arial" font-size="12" fill="#f57f17" text-anchor="middle">provider: openstack</text>
  <text x="250" y="425" font-family="Arial" font-size="12" fill="#f57f17" text-anchor="middle">kubernetesVersion: 1.30</text>
  
  <!-- ClusterClass -->
  <rect x="450" y="350" width="200" height="100" fill="#b2dfdb" stroke="#009688" stroke-width="2" rx="5" ry="5"/>
  <text x="550" y="380" font-family="Arial" font-size="16" fill="#00695c" text-anchor="middle" font-weight="bold">ClusterClass</text>
  <text x="550" y="405" font-family="Arial" font-size="12" fill="#00695c" text-anchor="middle">Infrastructure Templates</text>
  <text x="550" y="425" font-family="Arial" font-size="12" fill="#00695c" text-anchor="middle">Control Plane Configuration</text>
  
  <!-- OCI Registry -->
  <rect x="450" y="480" width="200" height="50" fill="#bbdefb" stroke="#1976d2" stroke-width="2" rx="5" ry="5"/>
  <text x="550" y="510" font-family="Arial" font-size="14" fill="#0d47a1" text-anchor="middle" font-weight="bold">OCI Registry</text>
  
  <!-- Arrows with ALIGNED horizontal lines - now both use y=330 (moved 5px up from 335) -->
  <!-- From Watch to ClusterStack CRD - Simple straight line -->
  <path d="M 220,290 L 220,350" stroke="#546e7a" stroke-width="2" fill="none"/>
  <polygon points="220,350 215,340 225,340" fill="#546e7a"/>
  
  <!-- From Reconcile to ClusterStack CRD - Horizontal portion at y=330 -->
  <path d="M 340,290 L 340,330 L 250,330 L 250,350" stroke="#546e7a" stroke-width="2" fill="none"/>
  <polygon points="250,350 245,340 255,340" fill="#546e7a"/>
  
  <!-- From Apply to ClusterClass - Horizontal portion at y=330 -->
  <path d="M 460,290 L 460,330 L 550,330 L 550,350" stroke="#546e7a" stroke-width="2" fill="none"/>
  <polygon points="550,350 545,340 555,340" fill="#546e7a"/>
  
  <!-- From ClusterClass to OCI Registry - Simple straight line -->
  <path d="M 550,450 L 550,480" stroke="#546e7a" stroke-width="2" fill="none"/>
  <polygon points="550,480 545,470 555,470" fill="#546e7a"/>
  
  <!-- From ClusterStack to ClusterClass - Horizontal straight line -->
  <path d="M 350,400 L 450,400" stroke="#546e7a" stroke-width="2" fill="none"/>
  <polygon points="450,400 440,395 440,405" fill="#546e7a"/>
</svg>